<svg width="16" height="16" version="1.1" viewBox="0 0 16 16" xmlns="http://www.w3.org/2000/svg">
 <path d="m14.8 5.19c-1.55-1.55-4.07-1.55-5.62 0-0.176 0.176-0.331 0.364-0.467 0.562h-6.83l-1.69 1.69c-0.31 0.31-0.31 0.813 0 1.12l0.562 0.562 0.562-0.562 1.12 1.12 1.12-1.12 1.12 1.12 1.12-1.12 1.12 1.12h1.46c0.19 0.406 0.453 0.788 0.789 1.12 1.55 1.55 4.07 1.55 5.62 0 1.55-1.55 1.55-4.07 0-5.62zm-1.97 3.65c-0.465-0.465-0.465-1.22 0-1.69 0.465-0.465 1.22-0.465 1.69 0 0.465 0.465 0.465 1.22 0 1.69-0.465 0.465-1.22 0.465-1.69 0z" stroke-width=".794"/>
</svg>
