<?xml version="1.0" encoding="UTF-8" standalone="no"?>
<!-- Generated by IcoMoon.io -->

<svg
   version="1.1"
   width="16"
   height="16"
   viewBox="0 0 16 16"
   id="svg1"
   sodipodi:docname="icon-joystick.svg"
   xml:space="preserve"
   inkscape:version="1.3.2 (091e20e, 2023-11-25, custom)"
   xmlns:inkscape="http://www.inkscape.org/namespaces/inkscape"
   xmlns:sodipodi="http://sodipodi.sourceforge.net/DTD/sodipodi-0.dtd"
   xmlns="http://www.w3.org/2000/svg"
   xmlns:svg="http://www.w3.org/2000/svg"><defs
     id="defs1" /><sodipodi:namedview
     id="namedview1"
     pagecolor="#ffffff"
     bordercolor="#000000"
     borderopacity="0.25"
     inkscape:showpageshadow="2"
     inkscape:pageopacity="0.0"
     inkscape:pagecheckerboard="true"
     inkscape:deskcolor="#d1d1d1"
     inkscape:zoom="26.15625"
     inkscape:cx="3.6320191"
     inkscape:cy="7.8566308"
     inkscape:window-width="1920"
     inkscape:window-height="1051"
     inkscape:window-x="-9"
     inkscape:window-y="-9"
     inkscape:window-maximized="1"
     inkscape:current-layer="svg1" /><path
     id="path11"
     style="fill:#000000;stroke-width:0.0590019"
     d="M 4.5917969 3.9785156 C 4.2264044 3.9722953 3.9797342 4.0344888 3.7089844 4.1601562 C 3.0408491 4.4702675 2.5913691 5.0351924 2.1992188 6.0644531 C 1.296976 8.4325237 1.3435204 11.380221 2.2929688 12.025391 C 2.4692819 12.145198 2.5815528 12.171875 2.8984375 12.171875 C 3.6373435 12.171875 4.1240122 11.956097 4.8417969 11.314453 C 6.1554965 10.140105 7.4126454 9.7326112 8.8632812 10.011719 C 9.7236021 10.177248 10.345593 10.503377 11.125 11.195312 C 11.972221 11.947454 12.451558 12.171875 13.212891 12.171875 C 13.698413 12.171875 13.94721 12.025086 14.175781 11.603516 C 14.45935 11.080503 14.540369 10.642663 14.542969 9.6054688 C 14.546715 8.1440552 14.252822 6.7544593 13.693359 5.5800781 C 13.341056 4.8405408 13.000628 4.4570963 12.460938 4.1914062 C 12.099955 4.0136968 12.029892 4.0002031 11.480469 4.0019531 C 11.042038 4.0033444 10.602687 4.0599827 9.78125 4.2226562 C 8.2697663 4.5219827 7.8484076 4.5192668 6.1875 4.2011719 C 5.4409078 4.0581864 4.9571889 3.9847359 4.5917969 3.9785156 z M 10.982422 5.2871094 C 11.371584 5.2871094 11.6875 5.6028289 11.6875 5.9921875 C 11.6875 6.3815461 11.371584 6.6972656 10.982422 6.6972656 C 10.593256 6.6972656 10.277344 6.3813521 10.277344 5.9921875 C 10.277344 5.6030229 10.593256 5.2871094 10.982422 5.2871094 z M 4.5429688 5.5429688 L 5.4960938 5.5429688 C 5.5835887 5.5429688 5.6542969 5.6156314 5.6542969 5.703125 L 5.6542969 6.6074219 C 5.6542969 6.6949168 5.7250064 6.765625 5.8125 6.765625 L 6.7167969 6.765625 C 6.8042918 6.765625 6.8769531 6.8363344 6.8769531 6.9238281 L 6.8769531 7.8769531 C 6.8765651 7.964447 6.8042914 8.0371094 6.7167969 8.0371094 L 5.8125 8.0371094 C 5.7250051 8.0371094 5.6542969 8.1078188 5.6542969 8.1953125 L 5.6542969 9.0996094 C 5.6542969 9.1871043 5.5816342 9.2578125 5.4941406 9.2578125 L 4.5410156 9.2578125 C 4.4535207 9.2578125 4.3828125 9.1871031 4.3828125 9.0996094 L 4.3828125 8.1953125 C 4.3828125 8.1078176 4.3121029 8.0371094 4.2246094 8.0371094 L 3.3203125 8.0371094 C 3.2328176 8.0371094 3.1601563 7.9644467 3.1601562 7.8769531 L 3.1601562 6.9238281 C 3.1601562 6.8363332 3.2328188 6.765625 3.3203125 6.765625 L 4.2246094 6.765625 C 4.3121043 6.765625 4.3828125 6.6949155 4.3828125 6.6074219 L 4.3828125 5.703125 C 4.3828125 5.6156301 4.4554751 5.5429688 4.5429688 5.5429688 z M 9.6230469 6.6445312 C 10.012213 6.6445312 10.328125 6.9604453 10.328125 7.3496094 C 10.328125 7.7387736 10.012213 8.0546875 9.6230469 8.0546875 C 9.2336885 8.0546875 8.9199219 7.7387736 8.9199219 7.3496094 C 8.9199219 6.9604453 9.2338825 6.6445313 9.6230469 6.6445312 z M 12.339844 6.6445312 C 12.729008 6.6445312 13.044922 6.9604445 13.044922 7.3496094 C 13.044922 7.7387744 12.729008 8.0546875 12.339844 8.0546875 C 11.950485 8.0546875 11.634766 7.7387744 11.634766 7.3496094 C 11.634766 6.9604445 11.950678 6.6445313 12.339844 6.6445312 z M 10.945312 8.0039062 C 10.957323 8.0032976 10.97026 8.0039062 10.982422 8.0039062 C 11.371582 8.0039062 11.6875 8.3196267 11.6875 8.7089844 C 11.6875 9.0983422 11.371582 9.4121094 10.982422 9.4121094 C 10.593256 9.4121094 10.277344 9.0981481 10.277344 8.7089844 C 10.277344 8.331982 10.572993 8.0227882 10.945312 8.0039062 z " /><path
     style="fill:#ff00ff;fill-opacity:0;stroke-width:0.0590019"
     d="M 2.2846357,12.030878 C 1.3351831,11.385709 1.2890215,8.4391942 2.191267,6.0711121 2.58342,5.041846 3.0314988,4.4758247 3.6996366,4.1657119 4.2411401,3.9143759 4.6853682,3.9219385 6.1785605,4.2079134 7.8394762,4.5260105 8.2619573,4.5285099 9.7734478,4.2291804 10.594891,4.0665055 11.034058,4.0093151 11.472489,4.0079235 c 0.549427,-0.00175 0.618743,0.011654 0.979726,0.1893647 0.539695,0.2656911 0.880952,0.6502664 1.233259,1.3898072 0.559464,1.1743868 0.852168,2.5627075 0.848422,4.0241283 -0.0026,1.0372003 -0.08298,1.4750363 -0.36655,1.9980493 -0.228571,0.421575 -0.477497,0.568532 -0.963024,0.568532 -0.761333,0 -1.239859,-0.223753 -2.087085,-0.975895 -0.779413,-0.69194 -1.4016872,-1.017345 -2.2620119,-1.182874 -1.4506428,-0.2791088 -2.7079808,0.128085 -4.0216869,1.302439 -0.7177879,0.641648 -1.2051647,0.85633 -1.944074,0.85633 -0.316886,0 -0.4285137,-0.02712 -0.6048285,-0.146927 z M 11.41637,9.3080872 c 0.119405,-0.078238 0.211609,-0.2250151 0.286109,-0.4554553 0.06037,-0.1867276 -0.07635,-0.5522588 -0.266373,-0.7121473 -0.323058,-0.2718352 -0.895395,-0.1661836 -1.084894,0.200268 -0.04923,0.095192 -0.0895,0.2785617 -0.0895,0.4074874 0,0.5514454 0.670971,0.8767722 1.15466,0.5598472 z M 5.6472813,8.7292684 c 0.00947,-0.2903694 0.045109,-0.5615516 0.079199,-0.602627 0.039603,-0.047718 0.2570664,-0.080782 0.6023015,-0.091575 L 6.8691024,8.0181739 V 7.3986541 6.7791345 L 6.328782,6.7622421 C 5.983547,6.7514487 5.766083,6.718385 5.7264805,6.6706668 5.6923908,6.6295913 5.6567511,6.3584091 5.6472813,6.0680397 L 5.6300634,5.5400954 H 5.0105438 4.3910243 l -0.016879,0.5746785 c -0.019556,0.6658076 0.027554,0.6250178 -0.7501444,0.6495008 l -0.4720149,0.01486 v 0.6195196 0.6195196 l 0.5279444,0.017218 c 0.2903694,0.00947 0.5625155,0.045909 0.6047691,0.080977 0.052339,0.043437 0.076824,0.2275674 0.076824,0.5777175 0,0.2826773 0.018571,0.5325296 0.041269,0.5552274 0.022698,0.022698 0.3081193,0.03376 0.6342701,0.024584 L 5.6300634,9.2572128 Z M 9.8489838,8.0476745 c 0.1532862,0 0.4489632,-0.3139442 0.4902912,-0.5205798 0.08982,-0.4491186 -0.246651,-0.8954648 -0.6750412,-0.8954648 -0.4688565,0 -0.7595669,0.2907104 -0.7595669,0.7595672 0,0.1659635 0.044499,0.287295 0.1523965,0.4155238 0.1508395,0.1792622 0.4528864,0.3116639 0.6047034,0.2650701 0.04322,-0.013264 0.127465,-0.024117 0.187217,-0.024116 z m 2.7535122,8.057e-4 c 0.131474,-0.00153 0.418357,-0.3504938 0.456858,-0.5557191 0.08106,-0.4320848 -0.259964,-0.8611312 -0.684464,-0.8611312 -0.49273,0 -0.794152,0.3299071 -0.740041,0.8099763 0.04522,0.4012012 0.422894,0.7072306 0.780429,0.6323831 0.06491,-0.013587 0.149149,-0.025066 0.187218,-0.025509 z M 11.206027,6.6906317 c 0.05976,0 0.187168,-0.078529 0.283149,-0.1745095 C 12.091847,5.9134509 11.375214,4.9703407 10.61379,5.3640885 10.086983,5.636511 10.184592,6.519519 10.759975,6.68654 c 0.09914,0.028779 0.215617,0.041472 0.258835,0.028208 0.04321,-0.013264 0.127465,-0.024117 0.187217,-0.024116 z"
     id="path1" /><path
     style="fill:#000000;fill-opacity:0;stroke-width:0.0540679"
     d="m -15.609423,12.165808 c -0.870056,-0.591218 -0.912358,-3.2913342 -0.08556,-5.4613882 0.359359,-0.9431949 0.769968,-1.4618834 1.382234,-1.7460633 0.49622,-0.2303184 0.903301,-0.2233882 2.271626,0.038672 1.522024,0.2914966 1.909175,0.293787 3.2942697,0.019489 0.7527501,-0.1490713 1.1551926,-0.2014794 1.5569604,-0.2027546 0.5034819,-0.0016 0.5670014,0.010679 0.8977975,0.1735294 0.4945634,0.2434729 0.8072835,0.5958886 1.13013,1.2735861 0.5126783,1.0761801 0.7809059,2.3484041 0.7774726,3.6876154 -0.00244,0.9504662 -0.076043,1.3516882 -0.3358974,1.8309652 -0.2094568,0.386321 -0.4375666,0.520989 -0.8824925,0.520989 -0.6976673,0 -1.1361775,-0.205042 -1.9125547,-0.894287 -0.7142353,-0.634077 -1.2844722,-0.932271 -2.0728536,-1.083958 -1.329335,-0.255768 -2.481529,0.117375 -3.685378,1.193525 -0.657764,0.587991 -1.104384,0.78472 -1.781503,0.78472 -0.290387,0 -0.39268,-0.02485 -0.55425,-0.13464 z"
     id="path7" /><path
     style="fill:#000000;fill-opacity:0;stroke-width:0.0540679"
     d="m -15.609423,12.165808 c -0.870056,-0.591218 -0.912358,-3.2913342 -0.08556,-5.4613882 0.359359,-0.9431949 0.769968,-1.4618834 1.382234,-1.7460633 0.49622,-0.2303184 0.903301,-0.2233882 2.271626,0.038672 1.522024,0.2914966 1.909175,0.293787 3.2942697,0.019489 0.7527501,-0.1490713 1.1551926,-0.2014794 1.5569604,-0.2027546 0.5034819,-0.0016 0.5670014,0.010679 0.8977975,0.1735294 0.4945634,0.2434729 0.8072835,0.5958886 1.13013,1.2735861 0.5126783,1.0761801 0.7809059,2.3484041 0.7774726,3.6876154 -0.00244,0.9504662 -0.076043,1.3516882 -0.3358974,1.8309652 -0.2094568,0.386321 -0.4375666,0.520989 -0.8824925,0.520989 -0.6976673,0 -1.1361775,-0.205042 -1.9125547,-0.894287 -0.7142353,-0.634077 -1.2844722,-0.932271 -2.0728536,-1.083958 -1.329335,-0.255768 -2.481529,0.117375 -3.685378,1.193525 -0.657764,0.587991 -1.104384,0.78472 -1.781503,0.78472 -0.290387,0 -0.39268,-0.02485 -0.55425,-0.13464 z"
     id="path8" /><path
     style="fill:#ff0000;fill-opacity:0;stroke-width:0.0540679"
     d="m -15.609423,12.165808 c -0.870056,-0.591218 -0.912358,-3.2913342 -0.08556,-5.4613882 0.359359,-0.9431949 0.769968,-1.4618834 1.382234,-1.7460633 0.49622,-0.2303184 0.903301,-0.2233882 2.271626,0.038672 1.522024,0.2914966 1.909175,0.293787 3.2942697,0.019489 0.7527501,-0.1490713 1.1551926,-0.2014794 1.5569604,-0.2027546 0.5034819,-0.0016 0.5670014,0.010679 0.8977975,0.1735294 0.4945634,0.2434729 0.8072835,0.5958886 1.13013,1.2735861 0.5126783,1.0761801 0.7809059,2.3484041 0.7774726,3.6876154 -0.00244,0.9504662 -0.076043,1.3516882 -0.3358974,1.8309652 -0.2094568,0.386321 -0.4375666,0.520989 -0.8824925,0.520989 -0.6976673,0 -1.1361775,-0.205042 -1.9125547,-0.894287 -0.7142353,-0.634077 -1.2844722,-0.932271 -2.0728536,-1.083958 -1.329335,-0.255768 -2.481529,0.117375 -3.685378,1.193525 -0.657764,0.587991 -1.104384,0.78472 -1.781503,0.78472 -0.290387,0 -0.39268,-0.02485 -0.55425,-0.13464 z"
     id="path9" /><path
     style="fill:#ff0000;fill-opacity:0;stroke-width:0.0540679"
     d="m -15.609423,12.165808 c -0.870056,-0.591218 -0.912358,-3.2913342 -0.08556,-5.4613882 0.359359,-0.9431949 0.769968,-1.4618834 1.382234,-1.7460633 0.49622,-0.2303184 0.903301,-0.2233882 2.271626,0.038672 1.522024,0.2914966 1.909175,0.293787 3.2942697,0.019489 0.7527501,-0.1490713 1.1551926,-0.2014794 1.5569604,-0.2027546 0.5034819,-0.0016 0.5670014,0.010679 0.8977975,0.1735294 0.4945634,0.2434729 0.8072835,0.5958886 1.13013,1.2735861 0.5126783,1.0761801 0.7809059,2.3484041 0.7774726,3.6876154 -0.00244,0.9504662 -0.076043,1.3516882 -0.3358974,1.8309652 -0.2094568,0.386321 -0.4375666,0.520989 -0.8824925,0.520989 -0.6976673,0 -1.1361775,-0.205042 -1.9125547,-0.894287 -0.7142353,-0.634077 -1.2844722,-0.932271 -2.0728536,-1.083958 -1.329335,-0.255768 -2.481529,0.117375 -3.685378,1.193525 -0.657764,0.587991 -1.104384,0.78472 -1.781503,0.78472 -0.290387,0 -0.39268,-0.02485 -0.55425,-0.13464 z"
     id="path10" /><path
     style="fill:#ff0000;fill-opacity:0;stroke-width:0.0540679"
     d="m -14.299897,13.585092 c -0.870056,-0.591218 -0.912358,-3.291336 -0.08556,-5.4613897 0.359359,-0.9431949 0.769968,-1.4618834 1.382234,-1.7460633 0.49622,-0.2303184 0.903301,-0.2233882 2.271626,0.038672 1.5220231,0.2914966 1.9091738,0.293787 3.2942684,0.019489 0.7527501,-0.1490713 1.1551926,-0.2014794 1.5569604,-0.2027546 0.5034819,-0.0016 0.5670014,0.010679 0.8977975,0.1735294 0.4945634,0.2434729 0.8072835,0.5958886 1.13013,1.2735861 0.5126783,1.0761801 0.7809059,2.3484041 0.7774726,3.6876171 -0.00244,0.950466 -0.076043,1.351688 -0.3358974,1.830965 -0.2094568,0.386321 -0.4375666,0.520989 -0.8824925,0.520989 -0.6976673,0 -1.1361775,-0.205042 -1.9125547,-0.894287 -0.7142353,-0.634077 -1.2844722,-0.932271 -2.0728536,-1.083958 -1.3293337,-0.255768 -2.4815277,0.117375 -3.6853767,1.193525 -0.657764,0.587991 -1.104384,0.78472 -1.781503,0.78472 -0.290387,0 -0.39268,-0.02485 -0.554251,-0.13464 z"
     id="path12" /></svg>
