<?xml version="1.0" encoding="UTF-8" standalone="no"?>
<!-- Created with Inkscape (http://www.inkscape.org/) -->

<svg
   xmlns:dc="http://purl.org/dc/elements/1.1/"
   xmlns:cc="http://creativecommons.org/ns#"
   xmlns:rdf="http://www.w3.org/1999/02/22-rdf-syntax-ns#"
   xmlns:svg="http://www.w3.org/2000/svg"
   xmlns="http://www.w3.org/2000/svg"
   xmlns:sodipodi="http://sodipodi.sourceforge.net/DTD/sodipodi-0.dtd"
   xmlns:inkscape="http://www.inkscape.org/namespaces/inkscape"
   version="1.1"
   id="svg2"
   width="16"
   height="16"
   viewBox="0 0 16 16"
   sodipodi:docname="man-woman.svg"
   inkscape:version="0.92.5 (2060ec1f9f, 2020-04-08)">
  <metadata
     id="metadata8">
    <rdf:RDF>
      <cc:Work
         rdf:about="">
        <dc:format>image/svg+xml</dc:format>
        <dc:type
           rdf:resource="http://purl.org/dc/dcmitype/StillImage" />
        <dc:title></dc:title>
      </cc:Work>
    </rdf:RDF>
  </metadata>
  <defs
     id="defs6" />
  <sodipodi:namedview
     pagecolor="#ffffff"
     bordercolor="#666666"
     borderopacity="1"
     objecttolerance="10"
     gridtolerance="10"
     guidetolerance="10"
     inkscape:pageopacity="0"
     inkscape:pageshadow="2"
     inkscape:window-width="1366"
     inkscape:window-height="746"
     id="namedview4"
     showgrid="false"
     inkscape:zoom="19.32"
     inkscape:cx="-0.45513617"
     inkscape:cy="8"
     inkscape:window-x="-8"
     inkscape:window-y="-8"
     inkscape:window-maximized="1"
     inkscape:current-layer="svg2"
     inkscape:pagecheckerboard="true" />
  <path
     style="fill:#000000;stroke-width:0.07063778"
     d="m 4.3334899,15.964851 c -0.421585,-0.104097 -1.518712,-0.516724 -1.518712,-0.571185 0,-0.120234 0.459785,-1.644387 0.60059,-1.99091 0.09704,-0.238801 0.176425,-0.528109 0.176425,-0.642903 0,-0.358268 0.117016,-0.546696 0.436408,-0.702737 0.167908,-0.08204 0.394972,-0.221477 0.504584,-0.309873 l 0.199296,-0.160721 -0.216956,-0.412437 c -0.119324,-0.226838 -0.216954,-0.45577 -0.216954,-0.508734 0,-0.133383 -0.17861,-0.21617 -0.657294,-0.30466 C 3.0419699,10.249977 2.310097,10.011629 2.164527,9.8798915 2.0187681,9.7479802 1.9978271,9.3868952 2.120347,9.1180027 2.193477,8.9574931 2.180307,8.913146 2.0052141,8.7303884 1.8825921,8.6023984 1.8239651,8.4811155 1.8508501,8.4110541 c 0.02384,-0.062132 0.014,-0.1673373 -0.02188,-0.2337898 C 1.7931001,8.1108113 1.7469801,7.976973 1.7264941,7.879846 1.6998741,7.7536597 1.5776791,7.645331 1.2984011,7.5003385 0.74287905,7.2119287 0.75564105,7.1292324 1.5080241,6.1419648 L 1.9442101,5.569606 1.8804501,5.0754439 c -0.04737,-0.3671653 -0.03699,-0.6359343 0.0404,-1.0458206 0.119164,-0.6310998 0.06694,-0.8050164 -0.239155,-0.7963138 -0.284107,0.00808 -0.620564,-0.2226107 -0.673022,-0.4614504 -0.04065,-0.1850838 0.0045,-0.2569033 0.433955,-0.6896325 C 1.7113891,1.8113894 2.110311,1.499742 2.350713,1.3728059 2.586526,1.2482926 2.8693179,1.0720895 2.9791389,0.9812436 c 0.109819,-0.090846 0.247956,-0.16517443 0.306971,-0.16517443 0.05901,0 0.191669,-0.043808 0.29479,-0.097352 0.554488,-0.2879055 1.2619191,-0.4398516 1.7238531,-0.37025996 0.165122,0.0248758 0.41822,0.0641348 0.562437,0.0872411 0.192225,0.0307981 0.324208,0.004626 0.494465,-0.0980537 C 6.669851,0.15177613 7.2876399,0.012785 7.5885489,0.06161548 c 0.30213,0.0490289 0.756398,0.36883799 0.921146,0.64849649 0.06866,0.1165523 0.324001,0.44074663 0.567422,0.72043203 0.564203,0.6482584 0.808105,1.1366607 1.0496131,2.1018016 0.163081,0.6517196 0.187487,0.8689414 0.154765,1.3774367 -0.02137,0.3320335 -0.0904,0.79442 -0.153397,1.0275246 C 9.9614979,6.5537311 9.5094629,7.4453748 9.1867459,7.7941346 9.0326429,7.960672 8.8027869,8.2916263 8.6759549,8.5295873 l -0.230603,0.4326572 0.156986,0.4874246 0.156985,0.4874244 0.544495,-0.0475 c 0.430332,-0.03754 0.562134,-0.02624 0.628622,0.05387 0.1090751,0.1314275 0.3025311,1.0507445 0.2581481,1.2267385 -0.02376,0.09422 0.165839,0.390273 0.621567,0.970563 0.360667,0.459244 0.697788,0.893938 0.749162,0.965987 0.08459,0.11862 0.03577,0.179882 -0.516638,0.648403 -1.2185401,1.033499 -2.3994801,1.713486 -3.6117151,2.079632 -0.530135,0.160123 -0.7855839,0.192927 -1.6513939,0.212069 -0.73372,0.01622 -1.1444651,-0.007 -1.4480741,-0.08201 z"
     id="path3715"
     inkscape:connector-curvature="0" />
  <path
     style="fill:#ffffff;stroke-width:0.07269249"
     d="m 12.111364,15.654108 c 0.259876,-0.05811 0.668772,-0.17545 0.908656,-0.260768 0.484665,-0.172378 1.819846,-0.847157 1.923576,-0.972143 0.0438,-0.05278 -0.207268,-0.426015 -0.737087,-1.095736 C 13.764574,12.766832 13.254722,12.102544 13.073504,11.849265 12.689171,11.312102 12.344052,10.380384 12.28157,9.7112765 L 12.23856,9.2506521 12.950144,8.4540529 c 0.8071,-0.9035261 1.250794,-1.5448843 1.298873,-1.8775112 0.01809,-0.125154 0.08876,-0.5790394 0.157028,-1.0086337 0.07437,-0.4679565 0.108893,-0.9709841 0.08611,-1.2547865 -0.04023,-0.5012015 0.02682,-0.6546249 0.169539,-0.3879459 0.159741,0.2984789 -0.09622,2.4443974 -0.523215,4.3865106 -0.258287,1.1747672 -0.251395,1.5630703 0.04903,2.7623128 0.1612,0.643495 0.947161,3.083878 1.015083,3.151799 0.01437,0.01437 0.288287,-0.176687 0.608711,-0.424565 l 0.582591,-0.450687 -0.03118,-2.119623 C 16.312996,7.852274 16.200859,5.3126592 16.079459,4.8161121 15.815861,3.7379466 15.454892,3.1198701 14.956645,2.8935492 14.77108,2.8092601 14.562453,2.709928 14.493029,2.6728112 c -0.06943,-0.037116 -0.192093,-0.067484 -0.272596,-0.067484 -0.118292,0 -0.146372,-0.047901 -0.146372,-0.2496915 0,-0.3638295 -0.09722,-0.5678431 -0.52504,-1.1017098 -0.812089,-1.01340092 -2.017388,-1.52751271 -3.545739,-1.5124094 -0.7124226,0.007044 -0.8156865,0.0277395 -1.5500515,0.31071168 C 7.2162283,0.52888081 6.9831572,0.77253144 6.8666697,1.7108105 6.8237917,2.056182 6.7432204,2.3422647 6.6532416,2.4686282 6.4575622,2.7434356 6.2361452,3.2558515 6.0632659,3.833985 5.8933829,4.4020986 5.8962491,4.3744602 5.9656703,4.7752466 c 0.053362,0.3080853 0.050367,0.3148624 -0.1158355,0.2621116 -0.1581969,-0.05021 -0.1627201,-0.044462 -0.062151,0.078984 0.098069,0.1203679 0.096268,0.1285625 -0.018741,0.08546 -0.1812646,-0.067932 -0.1581454,0.057127 0.025729,0.1391735 0.1683733,0.075131 0.2104414,0.0029 -0.5426411,0.9317584 C 4.9874809,6.5990324 5.0300975,6.8288423 5.3865196,6.997976 5.6652923,7.1302625 5.6979354,7.2282425 5.5350043,7.4436562 5.3963028,7.627036 5.3961279,7.7985394 5.5344949,7.9134 c 0.098964,0.082136 0.097729,0.1065396 -0.011537,0.2272731 -0.099891,0.1103734 -0.1071967,0.1686386 -0.039736,0.3166935 0.045469,0.09979 0.1347896,0.1814362 0.1984959,0.1814362 0.098131,0 0.1081178,0.061702 0.065373,0.4038445 -0.044738,0.3580694 -0.031853,0.4236482 0.1136866,0.5785668 0.2138037,0.2275824 0.6416882,0.2889054 1.3015142,0.1865306 0.3655023,-0.05671 0.5627649,-0.058 0.6630325,-0.0043 0.3184854,0.1704478 0.8915327,1.7146663 1.0159131,2.7376263 l 0.080784,0.664412 -0.3149881,0.315434 c -0.1895915,0.189861 -0.3518833,0.438906 -0.4076667,0.625584 -0.050974,0.170582 -0.1913485,0.422527 -0.3119453,0.559878 l -0.2192659,0.24973 0.3637749,0.184339 c 0.8713329,0.441537 1.4263051,0.571109 2.5528599,0.596028 0.73379,0.01623 1.197602,-0.0087 1.526543,-0.08233 z"
     id="path3719"
     inkscape:connector-curvature="0" />
</svg>
