<?xml version="1.0" encoding="UTF-8"?>
<!-- Created with Inkscape (http://www.inkscape.org/) -->
<svg width="16" height="16" version="1.1" viewBox="0 0 16 16" xmlns="http://www.w3.org/2000/svg" xmlns:cc="http://creativecommons.org/ns#" xmlns:dc="http://purl.org/dc/elements/1.1/" xmlns:rdf="http://www.w3.org/1999/02/22-rdf-syntax-ns#">
 <metadata>
  <rdf:RDF>
   <cc:Work rdf:about="">
    <dc:format>image/svg+xml</dc:format>
    <dc:type rdf:resource="http://purl.org/dc/dcmitype/StillImage"/>
    <dc:title/>
   </cc:Work>
  </rdf:RDF>
 </metadata>
 <path d="m9.8857 15.913c0.25988-0.05811 0.66877-0.17545 0.90866-0.26077 0.48466-0.17238 1.8198-0.84716 1.9236-0.97214 0.0438-0.05278-0.20727-0.42602-0.73709-1.0957-0.44194-0.55863-0.95179-1.2229-1.133-1.4762-0.38433-0.53716-0.72945-1.4689-0.79193-2.138l-0.04301-0.46062 0.71158-0.7966c0.8071-0.90353 1.2508-1.5449 1.2989-1.8775 0.01809-0.12515 0.08876-0.57904 0.15703-1.0086 0.07437-0.46796 0.10889-0.97098 0.08611-1.2548-0.04023-0.5012 0.02682-0.65462 0.16954-0.38795 0.15974 0.29848-0.09622 2.4444-0.52322 4.3865-0.25829 1.1748-0.2514 1.5631 0.04903 2.7623 0.1612 0.6435 0.94716 3.0839 1.0151 3.1518 0.01437 0.01437 0.28829-0.17669 0.60871-0.42456l0.58259-0.45069-0.03118-2.1196c-0.049718-3.3786-0.16186-5.9183-0.28326-6.4148-0.2636-1.0782-0.62457-1.6962-1.1228-1.9226-0.18556-0.084289-0.39419-0.18362-0.46362-0.22074-0.06943-0.037116-0.19209-0.067484-0.2726-0.067484-0.11829 0-0.14637-0.047901-0.14637-0.24969 0-0.36383-0.09722-0.56784-0.52504-1.1017-0.81209-1.0134-2.0174-1.5275-3.5457-1.5124-0.71242 0.0070436-0.81569 0.027739-1.5501 0.31071-1.237 0.47665-1.4701 0.7203-1.5866 1.6586-0.042878 0.34537-0.12345 0.63145-0.21343 0.75782-0.19568 0.27481-0.4171 0.78722-0.58998 1.3654-0.16988 0.56811-0.16702 0.54048-0.097596 0.94126 0.053362 0.30809 0.050367 0.31486-0.11584 0.26211-0.1582-0.05021-0.16272-0.044462-0.062151 0.078984 0.098069 0.12037 0.096268 0.12856-0.018741 0.08546-0.18126-0.067932-0.15815 0.057127 0.025729 0.13917 0.16837 0.075131 0.21044 0.0029-0.54264 0.93176-0.26455 0.3263-0.22193 0.55611 0.13449 0.72524 0.27877 0.13229 0.31142 0.23027 0.14848 0.44568-0.1387 0.18338-0.13888 0.35488-5.094e-4 0.46974 0.098964 0.082136 0.097729 0.10654-0.011537 0.22727-0.099891 0.11037-0.1072 0.16864-0.039736 0.31669 0.045469 0.09979 0.13479 0.18144 0.1985 0.18144 0.098131 0 0.10812 0.061702 0.065373 0.40384-0.044738 0.35807-0.031853 0.42365 0.11369 0.57857 0.2138 0.22758 0.64169 0.28891 1.3015 0.18653 0.3655-0.05671 0.56276-0.058 0.66303-0.0043 0.31849 0.17045 0.89153 1.7147 1.0159 2.7376l0.080784 0.66441-0.31499 0.31543c-0.18959 0.18986-0.35188 0.43891-0.40767 0.62558-0.050974 0.17058-0.19135 0.42253-0.31195 0.55988l-0.21927 0.24973 0.36377 0.18434c0.87133 0.44154 1.4263 0.57111 2.5529 0.59603 0.73379 0.01623 1.1976-0.0087 1.5265-0.08233z" stroke-width=".072692"/>
</svg>
