<?xml version="1.0" encoding="UTF-8"?>
<!-- Created with Inkscape (http://www.inkscape.org/) -->
<svg width="16" height="16" version="1.1" viewBox="0 0 16 16" xmlns="http://www.w3.org/2000/svg" xmlns:cc="http://creativecommons.org/ns#" xmlns:dc="http://purl.org/dc/elements/1.1/" xmlns:rdf="http://www.w3.org/1999/02/22-rdf-syntax-ns#">
 <metadata>
  <rdf:RDF>
   <cc:Work rdf:about="">
    <dc:format>image/svg+xml</dc:format>
    <dc:type rdf:resource="http://purl.org/dc/dcmitype/StillImage"/>
    <dc:title/>
   </cc:Work>
  </rdf:RDF>
 </metadata>
 <path d="m6.5592 15.913c-0.42158-0.1041-1.5187-0.51672-1.5187-0.57118 0-0.12023 0.45978-1.6444 0.60059-1.9909 0.09704-0.2388 0.17642-0.52811 0.17642-0.6429 0-0.35827 0.11702-0.5467 0.43641-0.70274 0.16791-0.08204 0.39497-0.22148 0.50458-0.30987l0.1993-0.16072-0.21696-0.41244c-0.11932-0.22684-0.21695-0.45577-0.21695-0.50873 0-0.13338-0.17861-0.21617-0.65729-0.30466-0.59891-0.11071-1.3308-0.34906-1.4763-0.4808-0.14576-0.13191-0.1667-0.493-0.04418-0.76189 0.07313-0.16051 0.05996-0.20486-0.11513-0.38761-0.12262-0.12799-0.18125-0.24927-0.15436-0.31933 0.02384-0.062132 0.014-0.16734-0.02188-0.23379-0.03587-0.066453-0.08199-0.20029-0.10248-0.29742-0.02662-0.12619-0.14882-0.23452-0.42809-0.37951-0.55552-0.28841-0.54276-0.37111 0.20962-1.3584l0.43619-0.57236-0.06376-0.49416c-0.04737-0.36717-0.03699-0.63593 0.0404-1.0458 0.11916-0.6311 0.06694-0.80502-0.23916-0.79631-0.28411 0.00808-0.62056-0.22261-0.67302-0.46145-0.04065-0.18508 0.0045-0.2569 0.43396-0.68963 0.26876-0.27084 0.66768-0.58248 0.90808-0.70942 0.23581-0.12451 0.5186-0.30072 0.62843-0.39156 0.10982-0.090846 0.24796-0.16517 0.30697-0.16517 0.05901 0 0.19167-0.043808 0.29479-0.097352 0.55449-0.28791 1.2619-0.43985 1.7239-0.37026 0.16512 0.024876 0.41822 0.064135 0.56244 0.087241 0.19222 0.030798 0.32421 0.004626 0.49446-0.098054 0.3082-0.18587 0.92598-0.32486 1.2269-0.27603 0.30213 0.049029 0.7564 0.36884 0.92115 0.6485 0.06866 0.11655 0.324 0.44075 0.56742 0.72043 0.5642 0.64826 0.8081 1.1367 1.0496 2.1018 0.16308 0.65172 0.18749 0.86894 0.15476 1.3774-0.02137 0.33203-0.0904 0.79442-0.1534 1.0275-0.1666 0.61642-0.61864 1.5081-0.94135 1.8568-0.1541 0.16654-0.38396 0.49749-0.51079 0.73545l-0.2306 0.43266 0.15699 0.48742 0.15698 0.48742 0.5445-0.0475c0.43033-0.03754 0.56213-0.02624 0.62862 0.05387 0.10908 0.13143 0.30253 1.0507 0.25815 1.2267-0.02376 0.09422 0.16584 0.39027 0.62157 0.97056 0.36067 0.45924 0.69779 0.89394 0.74916 0.96599 0.08459 0.11862 0.03577 0.17988-0.51664 0.6484-1.2185 1.0335-2.3995 1.7135-3.6117 2.0796-0.53014 0.16012-0.78558 0.19293-1.6514 0.21207-0.73372 0.01622-1.1445-7e-3 -1.4481-0.08201z" stroke-width=".070638"/>
</svg>
