<svg id="bold" height="512" viewBox="0 0 24 24" width="512" xmlns="http://www.w3.org/2000/svg"><path d="m18.25 24h-.5c-.965 0-1.75-.785-1.75-1.75v-2.25h-2.25c-.965 0-1.75-.785-1.75-1.75v-.5c0-.965.785-1.75 1.75-1.75h2.25v-2.25c0-.965.785-1.75 1.75-1.75h.5c.965 0 1.75.785 1.75 1.75v2.25h2.25c.965 0 1.75.785 1.75 1.75v.5c0 .965-.785 1.75-1.75 1.75h-2.25v2.25c0 .965-.785 1.75-1.75 1.75z"/><circle cx="9" cy="5" r="5"/><path d="m10 18.25v-.5c0-2.068 1.682-3.75 3.75-3.75h.25v-.25c0-.552.127-1.072.342-1.545-.43-.12-.874-.205-1.342-.205h-8c-2.761 0-5 2.239-5 5v3.25c0 .414.336.75.75.75h10.47c-.745-.686-1.22-1.66-1.22-2.75z"/></svg>