<?xml version="1.0" encoding="UTF-8" standalone="no"?>
<svg
   xmlns:dc="http://purl.org/dc/elements/1.1/"
   xmlns:cc="http://creativecommons.org/ns#"
   xmlns:rdf="http://www.w3.org/1999/02/22-rdf-syntax-ns#"
   xmlns:svg="http://www.w3.org/2000/svg"
   xmlns="http://www.w3.org/2000/svg"
   xmlns:sodipodi="http://sodipodi.sourceforge.net/DTD/sodipodi-0.dtd"
   xmlns:inkscape="http://www.inkscape.org/namespaces/inkscape"
   id="Capa_1"
   enable-background="new 0 0 512.001 512.001"
   height="16"
   viewBox="0 0 16.000031 16.000031"
   width="16"
   version="1.1"
   sodipodi:docname="patient-1.svg"
   inkscape:version="1.0.2-2 (e86c870879, 2021-01-15)"
   inkscape:export-filename="D:\cesar\CodeReference\Recursos_Desarrollo\iconosSVG\paciente3.png"
   inkscape:export-xdpi="99"
   inkscape:export-ydpi="99">
  <defs
     id="defs9" />
  <sodipodi:namedview
     pagecolor="#ffffff"
     bordercolor="#666666"
     borderopacity="1"
     objecttolerance="10"
     gridtolerance="10"
     guidetolerance="10"
     inkscape:pageopacity="0"
     inkscape:pageshadow="2"
     inkscape:window-width="1366"
     inkscape:window-height="745"
     id="namedview7"
     showgrid="false"
     inkscape:zoom="18.0625"
     inkscape:cx="11.092313"
     inkscape:cy="9.073478"
     inkscape:window-x="-8"
     inkscape:window-y="-8"
     inkscape:window-maximized="1"
     inkscape:current-layer="Capa_1"
     inkscape:document-rotation="0" />
  <metadata
     id="metadata1109">
    <rdf:RDF>
      <cc:Work
         rdf:about="">
        <dc:title></dc:title>
        <dc:format>image/svg+xml</dc:format>
        <dc:type
           rdf:resource="http://purl.org/dc/dcmitype/StillImage" />
      </cc:Work>
    </rdf:RDF>
  </metadata>
  <path
     id="path844"
     d="M 2.8789717,15.856463 C 2.0497121,15.584815 1.5704543,15.193683 1.1836211,14.472856 1.0104639,14.150193 1.0000018,14.083746 1.0000018,13.306618 c 0,-0.941874 0.054971,-1.148795 0.5641366,-2.123594 C 2.0798314,10.195729 3.3732901,8.4996322 4.2991131,7.5966839 5.203911,6.7142407 5.442807,6.6004458 6.4600307,6.5673564 c 0.42641,-0.01387 0.7752914,-0.00841 0.7752914,0.01214 0,0.03423 -1.3069074,1.7086157 -2.8428966,3.6422666 -1.2477721,1.570815 -1.3314987,1.721902 -1.3406661,2.41925 -0.0052,0.392365 0.024332,0.536348 0.1687688,0.824081 0.2306526,0.459476 0.5683263,0.793522 0.9950941,0.984405 l 0.3474201,0.155393 3.4666981,6.33e-4 c 2.8992925,5.07e-4 3.5300915,-0.01524 3.8540095,-0.0963 0.543722,-0.136059 0.817193,-0.27295 1.112986,-0.557126 1.120108,-1.076116 0.473868,-2.989184 -1.109668,-3.284949 -0.21774,-0.04067 -0.401093,-0.07697 -0.40745,-0.08067 -0.01778,-0.01035 -0.714723,-2.4599059 -0.905848,-3.1837743 -0.0933,-0.3533686 -0.189252,-0.6915969 -0.213227,-0.7516191 -0.04009,-0.1003682 0.0221,-0.1072681 0.774459,-0.085924 0.693999,0.019688 0.865937,0.045773 1.133851,0.1720194 0.748098,0.3525159 1.462611,1.2598432 1.836021,2.3314783 0.858703,2.4643547 1.15429,5.3972537 0.645685,6.4066327 -0.284736,0.565086 0.172538,0.525166 -5.9976465,0.523581 L 3.3093802,15.997474 2.8789717,15.856481 Z M 8.6802365,13.795719 C 8.3955433,13.652835 8.2935689,13.554866 8.1448439,13.281353 8.0236307,13.058439 7.9611257,12.846973 7.9611257,12.659799 c 0,-0.506301 0.3888425,-1.97025 1.2341194,-4.6463183 L 9.3654392,7.4746584 9.7140396,9.1228207 C 9.9057706,10.02931 10.081064,10.877955 10.10358,11.008699 l 0.04094,0.237716 h 0.823908 c 1.143818,0 1.46571,0.142933 1.784498,0.792386 0.250315,0.509959 0.182052,1.024073 -0.194204,1.462609 -0.366018,0.426606 -0.553332,0.467843 -2.132223,0.469419 l -1.3945877,0.0014 z M 8.4090879,4.7406515e-5 A 3.2344948,3.1074646 0 0 0 5.2094641,3.1062489 3.2344948,3.1074646 0 0 0 8.4443217,6.2140622 3.2344948,3.1074646 0 0 0 11.679181,3.1062489 3.2344948,3.1074646 0 0 0 8.4443217,4.7406515e-5 a 3.2344948,3.1074646 0 0 0 -0.035238,0 z" />
</svg>
