<?xml version="1.0" encoding="UTF-8" standalone="no"?>
<svg
   xmlns:osb="http://www.openswatchbook.org/uri/2009/osb"
   xmlns:dc="http://purl.org/dc/elements/1.1/"
   xmlns:cc="http://creativecommons.org/ns#"
   xmlns:rdf="http://www.w3.org/1999/02/22-rdf-syntax-ns#"
   xmlns:svg="http://www.w3.org/2000/svg"
   xmlns="http://www.w3.org/2000/svg"
   xmlns:sodipodi="http://sodipodi.sourceforge.net/DTD/sodipodi-0.dtd"
   xmlns:inkscape="http://www.inkscape.org/namespaces/inkscape"
   version="1.1"
   width="16"
   height="16"
   viewBox="0 0 16 16"
   id="svg4"
   sodipodi:docname="send.svg"
   inkscape:version="1.0.2-2 (e86c870879, 2021-01-15)">
  <metadata
     id="metadata10">
    <rdf:RDF>
      <cc:Work
         rdf:about="">
        <dc:format>image/svg+xml</dc:format>
        <dc:type
           rdf:resource="http://purl.org/dc/dcmitype/StillImage" />
        <dc:title></dc:title>
      </cc:Work>
    </rdf:RDF>
  </metadata>
  <defs
     id="defs8">
    <linearGradient
       id="linearGradient837"
       osb:paint="solid">
      <stop
         style="stop-color:#000000;stop-opacity:1;"
         offset="0"
         id="stop835" />
    </linearGradient>
  </defs>
  <sodipodi:namedview
     pagecolor="#ffffff"
     bordercolor="#666666"
     borderopacity="1"
     objecttolerance="10"
     gridtolerance="10"
     guidetolerance="10"
     inkscape:pageopacity="0"
     inkscape:pageshadow="2"
     inkscape:window-width="1366"
     inkscape:window-height="745"
     id="namedview6"
     showgrid="false"
     inkscape:zoom="25.544232"
     inkscape:cx="6.7072745"
     inkscape:cy="9.307557"
     inkscape:window-x="-8"
     inkscape:window-y="-8"
     inkscape:window-maximized="1"
     inkscape:current-layer="svg4" />
  <path
     fill="#000000"
     d="M 8.5,16 C 8.464,16 8.428,15.996 8.392,15.988 8.163,15.937 8,15.734 8,15.5 8.2164562,6.4817585 9.0916218,8 0.5,8 0.266,8 0.063,7.837 0.012,7.608 -0.039,7.379 0.076,7.146 0.289,7.047 l 15,-7 c 0.191,-0.089 0.416,-0.049 0.565,0.1 0.149,0.149 0.188,0.374 0.1,0.565 l -7,15 C 8.871,15.891 8.692,16.001 8.501,16.001 Z M 2.754,7 c -1.836,-4.6666667 -0.918,-2.3333333 0,0 z"
     id="path2"
     style="fill:#000000;fill-opacity:1"
     sodipodi:nodetypes="ccccsccscccccc" />
</svg>
