<?xml version="1.0" encoding="UTF-8" standalone="no"?>
<svg
   xmlns:dc="http://purl.org/dc/elements/1.1/"
   xmlns:cc="http://creativecommons.org/ns#"
   xmlns:rdf="http://www.w3.org/1999/02/22-rdf-syntax-ns#"
   xmlns:svg="http://www.w3.org/2000/svg"
   xmlns="http://www.w3.org/2000/svg"
   xmlns:sodipodi="http://sodipodi.sourceforge.net/DTD/sodipodi-0.dtd"
   xmlns:inkscape="http://www.inkscape.org/namespaces/inkscape"
   id="Capa_1"
   enable-background="new 0 0 512.001 512.001"
   height="16"
   viewBox="0 0 16.000031 16.000031"
   width="16"
   version="1.1"
   sodipodi:docname="doctort.svg"
   inkscape:version="1.0.2-2 (e86c870879, 2021-01-15)">
  <metadata
     id="metadata9">
    <rdf:RDF>
      <cc:Work
         rdf:about="">
        <dc:format>image/svg+xml</dc:format>
        <dc:type
           rdf:resource="http://purl.org/dc/dcmitype/StillImage" />
        <dc:title></dc:title>
      </cc:Work>
    </rdf:RDF>
  </metadata>
  <path
     style="fill:#000000;stroke:none;stroke-width:0;stroke-miterlimit:4;stroke-dasharray:none"
     d="M 7.0511582,8.0193205 C 5.5470859,7.649644 4.4260396,6.5167185 4.0302554,4.966411 3.9098012,4.4945831 3.9217767,3.5769896 4.0549742,3.0715328 4.5524976,1.1836574 6.282585,-0.09636474 8.1987856,0.00569146 9.9668208,0.09985678 11.414518,1.2526005 11.921946,2.9702991 c 0.110839,0.3752067 0.13118,0.5385441 0.131965,1.0596641 0.0013,0.661975 -0.06586,1.0369775 -0.277771,1.5579704 C 11.261129,6.8541528 10.122389,7.7982057 8.8063152,8.0500111 8.2911356,8.148577 7.5223848,8.1351346 7.0511548,8.0193217 Z"
     id="path926" />
  <path
     style="fill:#000000;stroke:none;stroke-width:0;stroke-miterlimit:4;stroke-dasharray:none"
     d="m 11.514454,11.889863 c -0.159428,-0.159429 -0.171761,-0.192271 -0.148762,-0.396293 0.02907,-0.258027 0.139057,-0.400539 0.353086,-0.457548 0.347751,-0.09263 0.669384,0.144347 0.669384,0.493199 0,0.16097 -0.03225,0.231574 -0.167578,0.366902 -0.23551,0.235506 -0.466411,0.23346 -0.70613,-0.0063 z"
     id="path924" />
  <path
     style="fill:#000000;stroke:none;stroke-width:0;stroke-miterlimit:4;stroke-dasharray:none"
     d="M 3.2665422,15.953898 C 1.8309737,15.801482 1.1524001,15.307289 0.92867009,14.251265 0.64553813,12.91486 1.1780884,11.282193 2.2410277,10.227873 2.8046078,9.6688643 3.6073938,9.1838894 4.2243182,9.0297338 L 4.3652865,8.9945063 4.1905793,9.2484849 C 3.9833927,9.549681 3.8154972,9.9765088 3.7772822,10.299166 c -0.022908,0.193596 -0.064473,0.268152 -0.2474759,0.444115 -0.5994534,0.576397 -0.7387097,0.731929 -0.8677117,0.969144 -0.076895,0.141384 -0.1480092,0.328163 -0.1580458,0.415062 -0.00997,0.0869 -0.063384,0.335431 -0.1185667,0.552293 -0.1830373,0.719329 -0.1095673,1.461994 0.1653744,1.671556 0.2471263,0.188365 0.7894938,0.290502 1.0374178,0.195366 0.1314796,-0.05046 0.2306219,-0.290545 0.1775836,-0.430051 C 3.7003192,13.944266 3.6340482,13.915059 3.2454733,13.887303 L 2.900468,13.862665 2.8854671,13.517658 c -0.016869,-0.38772 0.1141741,-1.039889 0.2168816,-1.079301 0.035858,-0.01376 0.1229061,-0.138896 0.1934332,-0.27808 0.175616,-0.346566 0.5231796,-0.688071 0.7000287,-0.687834 0.2329815,3.05e-4 0.4435373,0.177138 0.7313942,0.614213 0.3266517,0.495996 0.4144374,0.785503 0.4152281,1.369394 l 6.223e-4,0.431258 H 4.8281531 c -0.3866198,0 -0.5393987,0.09772 -0.5393987,0.345008 0,0.23963 0.1551133,0.345513 0.5024351,0.342974 0.3278894,-0.0024 0.6648321,-0.150323 0.8171136,-0.358735 C 5.751686,14.020331 5.7804009,13.149744 5.6584169,12.69745 5.6119129,12.525087 5.5586477,12.284258 5.5400049,12.162273 5.4792449,11.764807 5.1352865,11.22613 4.7855559,10.980794 4.2708004,10.619698 4.211199,10.449617 4.4208208,9.9400551 4.5606558,9.6001351 4.8051865,9.2889816 5.0832074,9.0971977 L 5.2944221,8.9514953 5.4774973,9.1098872 c 0.100686,0.087118 0.7096217,0.6555019 1.3531809,1.2630828 l 1.1701001,1.10469 1.1982476,-1.123972 C 10.772705,8.877552 10.640422,8.9902914 10.736015,9.0437881 c 0.334366,0.1871198 0.758422,0.8087679 0.832872,1.2209469 0.0249,0.138008 0.0096,0.156173 -0.23003,0.272616 -0.826235,0.401486 -0.807413,1.596602 0.03194,2.029293 0.278156,0.143389 0.721632,0.143389 0.999789,0 0.263445,-0.135808 0.546595,-0.468224 0.615081,-0.722117 0.149343,-0.553601 -0.158351,-1.179193 -0.671177,-1.364633 -0.17881,-0.06466 -0.191417,-0.08568 -0.246772,-0.411668 C 12.028558,9.8375975 11.808656,9.3772784 11.618645,9.1281679 L 11.4848,8.9526825 l 0.143657,0.034425 c 0.981231,0.2351617 2.084153,0.9999119 2.669337,1.8508825 0.669327,0.973325 0.975694,2.248445 0.800129,3.33019 -0.178885,1.102232 -0.896831,1.635309 -2.406906,1.787135 -0.601421,0.06046 -8.853225,0.05922 -9.4244315,-0.0014 z"
     id="path920" />
  <defs
     id="defs9" />
  <sodipodi:namedview
     pagecolor="#ffffff"
     bordercolor="#666666"
     borderopacity="1"
     objecttolerance="10"
     gridtolerance="10"
     guidetolerance="10"
     inkscape:pageopacity="0"
     inkscape:pageshadow="2"
     inkscape:window-width="1366"
     inkscape:window-height="745"
     id="namedview7"
     showgrid="false"
     inkscape:zoom="18.0625"
     inkscape:cx="7.5065613"
     inkscape:cy="10.126336"
     inkscape:window-x="-8"
     inkscape:window-y="-8"
     inkscape:window-maximized="1"
     inkscape:current-layer="Capa_1"
     inkscape:document-rotation="0" />
</svg>
