<svg width="16" height="16" enable-background="new 0 0 512.001 512.001" version="1.1" viewBox="0 0 16 16" xmlns="http://www.w3.org/2000/svg">
 <g>
  <path d="m7.051 8.019c-1.504-0.3697-2.625-1.503-3.021-3.053-0.1205-0.4718-0.1085-1.389 0.02472-1.895 0.4975-1.888 2.228-3.168 4.144-3.066 1.768 0.09417 3.216 1.247 3.723 2.965 0.1108 0.3752 0.1312 0.5385 0.132 1.06 0.0013 0.662-0.06586 1.037-0.2778 1.558-0.515 1.266-1.654 2.21-2.97 2.462-0.5152 0.09857-1.284 0.08512-1.755-0.03069z"/>
  <path d="m11.51 11.89c-0.1594-0.1594-0.1718-0.1923-0.1488-0.3963 0.02907-0.258 0.1391-0.4005 0.3531-0.4575 0.3478-0.09263 0.6694 0.1443 0.6694 0.4932 0 0.161-0.03225 0.2316-0.1676 0.3669-0.2355 0.2355-0.4664 0.2335-0.7061-0.0063z"/>
  <path d="m3.267 15.95c-1.436-0.1524-2.114-0.6466-2.338-1.703-0.2831-1.336 0.2494-2.969 1.312-4.023 0.5636-0.559 1.366-1.044 1.983-1.198l0.141-0.03523-0.1747 0.254c-0.2072 0.3012-0.3751 0.728-0.4133 1.051-0.02291 0.1936-0.06447 0.2682-0.2475 0.4441-0.5995 0.5764-0.7387 0.7319-0.8677 0.9691-0.0769 0.1414-0.148 0.3282-0.158 0.4151-0.00997 0.0869-0.06338 0.3354-0.1186 0.5523-0.183 0.7193-0.1096 1.462 0.1654 1.672 0.2471 0.1884 0.7895 0.2905 1.037 0.1954 0.1315-0.05046 0.2306-0.2905 0.1776-0.4301-0.06554-0.1724-0.1318-0.2016-0.5204-0.2293l-0.345-0.02464-0.015-0.345c-0.01687-0.3877 0.1142-1.04 0.2169-1.079 0.03586-0.01376 0.1229-0.1389 0.1934-0.2781 0.1756-0.3466 0.5232-0.6881 0.7-0.6878 0.233 3.05e-4 0.4435 0.1771 0.7314 0.6142 0.3267 0.496 0.4144 0.7855 0.4152 1.369l6.223e-4 0.4313h-0.3149c-0.3866 0-0.5394 0.09772-0.5394 0.345 0 0.2396 0.1551 0.3455 0.5024 0.343 0.3279-0.0024 0.6648-0.1503 0.8171-0.3587 0.1434-0.1962 0.1721-1.067 0.05011-1.519-0.0465-0.1724-0.09977-0.4132-0.1184-0.5352-0.06076-0.3975-0.4047-0.9361-0.7544-1.181-0.5148-0.3611-0.5744-0.5312-0.3647-1.041 0.1398-0.3399 0.3844-0.6511 0.6624-0.8429l0.2112-0.1457 0.1831 0.1584c0.1007 0.08712 0.7096 0.6555 1.353 1.263l1.17 1.105 1.198-1.124c1.574-1.476 1.441-1.363 1.537-1.31 0.3344 0.1871 0.7584 0.8088 0.8329 1.221 0.0249 0.138 0.0096 0.1562-0.23 0.2726-0.8262 0.4015-0.8074 1.597 0.03194 2.029 0.2782 0.1434 0.7216 0.1434 0.9998 0 0.2634-0.1358 0.5466-0.4682 0.6151-0.7221 0.1493-0.5536-0.1584-1.179-0.6712-1.365-0.1788-0.06466-0.1914-0.08568-0.2468-0.4117-0.03916-0.2306-0.2591-0.6909-0.4491-0.9401l-0.1338-0.1755 0.1437 0.03442c0.9812 0.2352 2.084 0.9999 2.669 1.851 0.6693 0.9733 0.9757 2.248 0.8001 3.33-0.1789 1.102-0.8968 1.635-2.407 1.787-0.6014 0.06046-8.853 0.05922-9.424-0.0014z"/>
 </g>
</svg>
