<?xml version="1.0" encoding="UTF-8"?>
<svg width="16" height="16" enable-background="new 0 0 512.001 512.001" version="1.1" viewBox="0 0 16 16" xmlns="http://www.w3.org/2000/svg" xmlns:cc="http://creativecommons.org/ns#" xmlns:dc="http://purl.org/dc/elements/1.1/" xmlns:rdf="http://www.w3.org/1999/02/22-rdf-syntax-ns#">
 <metadata>
  <rdf:RDF>
   <cc:Work rdf:about="">
    <dc:format>image/svg+xml</dc:format>
    <dc:type rdf:resource="http://purl.org/dc/dcmitype/StillImage"/>
   </cc:Work>
  </rdf:RDF>
 </metadata>
 <g>
  <path d="m7.0512 8.0193c-1.5041-0.36968-2.6251-1.5026-3.0209-3.0529-0.12045-0.47183-0.10848-1.3894 0.024719-1.8949 0.49752-1.8879 2.2276-3.1679 4.1438-3.0658 1.768 0.094165 3.2157 1.2469 3.7232 2.9646 0.11084 0.37521 0.13118 0.53854 0.13196 1.0597 0.0013 0.66198-0.06586 1.037-0.27777 1.558-0.51501 1.2662-1.6538 2.2103-2.9698 2.4621-0.51518 0.098566-1.2839 0.085124-1.7552-0.030689z"/>
  <path d="m11.514 11.89c-0.15943-0.15943-0.17176-0.19227-0.14876-0.39629 0.02907-0.25803 0.13906-0.40054 0.35309-0.45755 0.34775-0.09263 0.66938 0.14435 0.66938 0.4932 0 0.16097-0.03225 0.23157-0.16758 0.3669-0.23551 0.23551-0.46641 0.23346-0.70613-0.0063z"/>
  <path d="m3.2665 15.954c-1.4356-0.15242-2.1141-0.64661-2.3379-1.7026-0.28313-1.3364 0.24942-2.9691 1.3124-4.0234 0.56358-0.55901 1.3664-1.044 1.9833-1.1981l0.14097-0.035228-0.17471 0.25398c-0.20719 0.3012-0.37508 0.72802-0.4133 1.0507-0.022908 0.1936-0.064473 0.26815-0.24748 0.44412-0.59945 0.5764-0.73871 0.73193-0.86771 0.96914-0.076895 0.14138-0.14801 0.32816-0.15805 0.41506-0.00997 0.0869-0.063384 0.33543-0.11857 0.55229-0.18304 0.71933-0.10957 1.462 0.16537 1.6716 0.24713 0.18836 0.78949 0.2905 1.0374 0.19537 0.13148-0.05046 0.23062-0.29054 0.17758-0.43005-0.065539-0.17238-0.13181-0.20159-0.52038-0.22935l-0.34501-0.024638-0.015001-0.34501c-0.016869-0.38772 0.11417-1.0399 0.21688-1.0793 0.035858-0.01376 0.12291-0.1389 0.19343-0.27808 0.17562-0.34657 0.52318-0.68807 0.70003-0.68783 0.23298 3.05e-4 0.44354 0.17714 0.73139 0.61421 0.32665 0.496 0.41444 0.7855 0.41523 1.3694l6.223e-4 0.43126h-0.3149c-0.38662 0-0.5394 0.09772-0.5394 0.34501 0 0.23963 0.15511 0.34551 0.50244 0.34297 0.32789-0.0024 0.66483-0.15032 0.81711-0.35874 0.14338-0.19622 0.1721-1.0668 0.050114-1.5191-0.046504-0.17236-0.099769-0.41319-0.11841-0.53518-0.06076-0.39747-0.40472-0.93614-0.75445-1.1815-0.51476-0.3611-0.57436-0.53118-0.36474-1.0407 0.13984-0.33992 0.38437-0.65107 0.66239-0.84286l0.21121-0.1457 0.18308 0.15839c0.10069 0.087118 0.70962 0.6555 1.3532 1.2631l1.1701 1.1047 1.1982-1.124c1.5737-1.4761 1.4414-1.3634 1.537-1.3099 0.33437 0.18712 0.75842 0.80877 0.83287 1.2209 0.0249 0.13801 0.0096 0.15617-0.23003 0.27262-0.82624 0.40149-0.80741 1.5966 0.03194 2.0293 0.27816 0.14339 0.72163 0.14339 0.99979 0 0.26344-0.13581 0.5466-0.46822 0.61508-0.72212 0.14934-0.5536-0.15835-1.1792-0.67118-1.3646-0.17881-0.06466-0.19142-0.08568-0.24677-0.41167-0.03916-0.23063-0.25906-0.69095-0.44907-0.94006l-0.13384-0.17549 0.14366 0.034425c0.98123 0.23516 2.0842 0.99991 2.6693 1.8509 0.66933 0.97332 0.97569 2.2484 0.80013 3.3302-0.17888 1.1022-0.89683 1.6353-2.4069 1.7871-0.60142 0.06046-8.8532 0.05922-9.4244-0.0014z"/>
 </g>
</svg>
