<?xml version="1.0" encoding="UTF-8" standalone="no"?>
<svg
   xmlns:dc="http://purl.org/dc/elements/1.1/"
   xmlns:cc="http://creativecommons.org/ns#"
   xmlns:rdf="http://www.w3.org/1999/02/22-rdf-syntax-ns#"
   xmlns:svg="http://www.w3.org/2000/svg"
   xmlns="http://www.w3.org/2000/svg"
   xmlns:sodipodi="http://sodipodi.sourceforge.net/DTD/sodipodi-0.dtd"
   xmlns:inkscape="http://www.inkscape.org/namespaces/inkscape"
   version="1.1"
   width="16"
   height="16"
   viewBox="0 0 16 16"
   id="svg6"
   sodipodi:docname="ficha-paciente.svg"
   inkscape:version="1.0.2-2 (e86c870879, 2021-01-15)"
   inkscape:export-filename="D:\cesar\CodeReference\svg-iconos\ficha-paciente.png"
   inkscape:export-xdpi="384"
   inkscape:export-ydpi="384">
  <metadata
     id="metadata12">
    <rdf:RDF>
      <cc:Work
         rdf:about="">
        <dc:format>image/svg+xml</dc:format>
        <dc:type
           rdf:resource="http://purl.org/dc/dcmitype/StillImage" />
        <dc:title></dc:title>
      </cc:Work>
    </rdf:RDF>
  </metadata>
  <defs
     id="defs10" />
  <sodipodi:namedview
     pagecolor="#ffffff"
     bordercolor="#666666"
     borderopacity="1"
     objecttolerance="10"
     gridtolerance="10"
     guidetolerance="10"
     inkscape:pageopacity="0"
     inkscape:pageshadow="2"
     inkscape:window-width="1366"
     inkscape:window-height="745"
     id="namedview8"
     showgrid="false"
     inkscape:zoom="18.0625"
     inkscape:cx="1.0854866"
     inkscape:cy="10.929594"
     inkscape:window-x="-8"
     inkscape:window-y="-8"
     inkscape:window-maximized="1"
     inkscape:current-layer="svg6" />
  <path
     fill="#000000"
     d="M 13.6875,2.75 H 9.75 C 9.75,1.783125 8.966875,1 8,1 7.033125,1 6.25,1.783125 6.25,2.75 H 2.3125 C 2.071,2.75 1.875,2.946 1.875,3.1875 v 11.375 C 1.875,14.804 2.071,15 2.3125,15 h 11.375 c 0.2415,0 0.4375,-0.196 0.4375,-0.4375 V 3.1875 C 14.125,2.946 13.929,2.75 13.6875,2.75 Z M 8,1.875 c 0.483,0 0.875,0.392 0.875,0.875 C 8.875,3.233 8.483,3.625 8,3.625 7.517,3.625 7.125,3.233 7.125,2.75 7.125,2.267 7.517,1.875 8,1.875 Z m 5.25,12.25 H 2.75 V 3.625 H 4.5 V 4.9375 C 4.5,5.179 4.696,5.375 4.9375,5.375 h 6.125 C 11.304,5.375 11.5,5.179 11.5,4.9375 V 3.625 h 1.75 z"
     id="path2"
     style="stroke-width:0.875;stroke:none" />
  <path
     id="path49"
     d="m 10.65179,5.8918596 c -0.508943,0 -0.9220005,0.4130562 -0.9220005,0.9220009 0,0.5089445 0.4130575,0.9220008 0.9220005,0.9220008 0.508945,0 0.922001,-0.4130563 0.922001,-0.9220008 0,-0.5089447 -0.413056,-0.9220009 -0.922001,-0.9220009 z m 0,1.8440017 h -0.614667 c -0.5071003,0 -0.9220008,0.2766003 -0.9220008,0.6146673 V 8.9651961 H 12.188458 V 8.3505286 c 0,-0.338067 -0.4149,-0.6146673 -0.921999,-0.6146673 z"
     style="stroke-width:0.614667;stroke:none" />
  <path
     d="m 4.2505493,11.724698 h 6.1249997 v 0.875 H 4.2505493 Z"
     id="path45"
     style="stroke-width:0.875;stroke:none" />
  <path
     d="M 4.2505493,9.9746972 H 10.375549 V 10.849698 H 4.2505493 Z"
     id="path43"
     style="stroke-width:0.875;stroke:none" />
</svg>
