<svg width="16" height="16" enable-background="new 0 0 512.001 512.001" version="1.1" viewBox="0 0 16 16" xmlns="http://www.w3.org/2000/svg">
 <path d="m2.086 14.97c-0.4004-0.09776-0.7127-0.4156-0.7942-0.8084-0.01712-0.08248-0.0226-0.3684-0.01682-0.8773 0.00788-0.6929 0.01228-0.7641 0.05361-0.8668 0.1272-0.3159 0.3492-0.5278 0.6676-0.6374 0.1291-0.04444 0.184-0.04485 5.994-0.04485 6.365 0 5.951-0.0077 6.189 0.1137 0.1983 0.101 0.4024 0.334 0.4978 0.5682 0.04225 0.1037 0.04626 0.1687 0.05335 0.8671 0.0049 0.4935-8.68e-4 0.7961-0.01701 0.8738-0.08492 0.4091-0.4081 0.7299-0.824 0.8179-0.178 0.03765-11.65 0.03179-11.8-0.0061zm11.02-1.186c0.1541-0.06482 0.2656-0.2373 0.2656-0.411 0-0.2347-0.1843-0.4309-0.4197-0.4466-0.1142-0.0077-0.1417-3.61e-4 -0.2488 0.0657-0.3153 0.1944-0.2988 0.6126 0.03098 0.7864 0.0842 0.04438 0.2728 0.04714 0.3719 0.0054zm-3.928-0.3933v-0.2796h-5.928l-0.00638 0.2559c-0.0035 0.1407-0.00132 0.2691 0.0049 0.2853 0.00927 0.02414 0.5419 0.02839 2.97 0.02374l2.959-0.0057zm-7.046-1.991c-0.4208-0.08505-0.7212-0.3665-0.8277-0.7754-0.05048-0.1938-0.05055-8.633-7.96e-5 -8.827 0.1047-0.4019 0.4201-0.697 0.8281-0.7749 0.09876-0.01885 1.662-0.02381 5.961-0.01894l5.827 0.00665 0.1767 0.07619c0.2096 0.09035 0.4205 0.2816 0.5137 0.4659 0.1336 0.2639 0.126-0.01746 0.126 4.67 0 3.887-0.0035 4.309-0.03605 4.419-0.1041 0.351-0.3138 0.58-0.651 0.7111l-0.1518 0.05902-5.838 0.0033c-3.211 0.0019-5.878-0.0049-5.928-0.01481zm11.28-5.424v-3.859h-11.03v7.717h11.03z" stroke-width=".02237"/>
</svg>
