<?xml version="1.0" encoding="UTF-8" standalone="no"?>
<svg
   xmlns:svg="http://www.w3.org/2000/svg"
   xmlns="http://www.w3.org/2000/svg"
   xmlns:sodipodi="http://sodipodi.sourceforge.net/DTD/sodipodi-0.dtd"
   xmlns:inkscape="http://www.inkscape.org/namespaces/inkscape"
   id="Capa_1"
   enable-background="new 0 0 512.001 512.001"
   height="16"
   viewBox="0 0 16.000031 16.000031"
   width="16"
   version="1.1"
   sodipodi:docname="pc.svg"
   inkscape:version="1.0.2-2 (e86c870879, 2021-01-15)">
  <metadata
     id="metadata9" />
  <defs
     id="defs9" />
  <sodipodi:namedview
     pagecolor="#ffffff"
     bordercolor="#666666"
     borderopacity="1"
     objecttolerance="10"
     gridtolerance="10"
     guidetolerance="10"
     inkscape:pageopacity="0"
     inkscape:pageshadow="2"
     inkscape:window-width="1366"
     inkscape:window-height="745"
     id="namedview7"
     showgrid="false"
     inkscape:zoom="25.544232"
     inkscape:cx="9.7453426"
     inkscape:cy="8.0877046"
     inkscape:window-x="-8"
     inkscape:window-y="-8"
     inkscape:window-maximized="1"
     inkscape:current-layer="Capa_1"
     inkscape:document-rotation="0" />
  <path
     style="fill:#000000;stroke-width:0.0255636"
     d="M 1.2409374,15.964035 C 0.78336337,15.852304 0.42644737,15.48902 0.33326637,15.04017 c -0.01957,-0.09426 -0.02583,-0.420985 -0.01922,-1.002591 0.009,-0.791836 0.01404,-0.873271 0.06127,-0.990581 0.145323,-0.360999 0.399037,-0.603214 0.76302103,-0.728444 0.147586,-0.05078 0.210336,-0.05125 6.850756,-0.05125 7.2740996,0 6.8007766,-0.0087 7.0730426,0.129972 0.22658,0.115401 0.459893,0.381713 0.568916,0.649381 0.04829,0.118554 0.05286,0.192792 0.06097,0.990918 0.0057,0.563973 -9.92e-4,0.90982 -0.01944,0.998642 -0.09706,0.467518 -0.466449,0.834167 -0.941705,0.934714 -0.203405,0.04303 -13.3129076,0.03633 -13.4899356,-0.0069 z M 13.834285,14.608472 c 0.176151,-0.07408 0.303493,-0.271172 0.303493,-0.469731 0,-0.268261 -0.21064,-0.492402 -0.479611,-0.510349 -0.130468,-0.0087 -0.161925,-4.13e-4 -0.284347,0.07508 -0.360359,0.22218 -0.341539,0.700058 0.0354,0.898773 0.09622,0.05072 0.311748,0.05388 0.42507,0.0062 z M 9.3446014,14.159015 v -0.319546 h -3.387178 -3.387177 l -0.0073,0.292419 c -0.004,0.16083 -0.0015,0.307543 0.0056,0.32603 0.01059,0.02758 0.619315,0.03245 3.394452,0.02713 l 3.381553,-0.0065 z m -8.052536,-2.27558 c -0.48086803,-0.0972 -0.82427403,-0.418873 -0.94597503,-0.886117 -0.05769,-0.221478 -0.05777,-9.8666302 -9.1e-5,-10.08809223 0.11964,-0.459329 0.48009,-0.796595 0.94645303,-0.885579 0.112872,-0.02154 1.899362,-0.02721 6.812315,-0.02164 l 6.6593196,0.0076 0.201968,0.08707 c 0.23951,0.103255 0.480582,0.32186 0.587138,0.532417 0.15264,0.301622 0.143966,-0.01996 0.143966,5.33756393 0,4.4418853 -0.0039,4.9242473 -0.0412,5.0498333 -0.119022,0.401156 -0.35859,0.662867 -0.743964,0.812732 l -0.173475,0.06746 -6.6721016,0.0037 c -3.669656,0.0021 -6.718116,-0.0056 -6.774356,-0.01693 z M 14.188906,5.6846787 v -4.409722 h -6.3014296 -6.30143 v 4.409722 4.4097223 h 6.30143 6.3014296 z"
     id="path23" />
</svg>
