<?xml version="1.0" encoding="UTF-8" standalone="no"?>
<svg
   xmlns:dc="http://purl.org/dc/elements/1.1/"
   xmlns:cc="http://creativecommons.org/ns#"
   xmlns:rdf="http://www.w3.org/1999/02/22-rdf-syntax-ns#"
   xmlns:svg="http://www.w3.org/2000/svg"
   xmlns="http://www.w3.org/2000/svg"
   xmlns:sodipodi="http://sodipodi.sourceforge.net/DTD/sodipodi-0.dtd"
   xmlns:inkscape="http://www.inkscape.org/namespaces/inkscape"
   version="1.1"
   width="16"
   height="16"
   viewBox="0 0 16 16"
   id="svg4"
   sodipodi:docname="printer-opt.svg"
   inkscape:version="1.0.2-2 (e86c870879, 2021-01-15)">
  <metadata
     id="metadata10">
    <rdf:RDF>
      <cc:Work
         rdf:about="">
        <dc:format>image/svg+xml</dc:format>
        <dc:type
           rdf:resource="http://purl.org/dc/dcmitype/StillImage" />
        <dc:title></dc:title>
      </cc:Work>
    </rdf:RDF>
  </metadata>
  <defs
     id="defs8" />
  <sodipodi:namedview
     pagecolor="#ffffff"
     bordercolor="#666666"
     borderopacity="1"
     objecttolerance="10"
     gridtolerance="10"
     guidetolerance="10"
     inkscape:pageopacity="0"
     inkscape:pageshadow="2"
     inkscape:window-width="1366"
     inkscape:window-height="745"
     id="namedview6"
     showgrid="false"
     inkscape:zoom="18.0625"
     inkscape:cx="3.3736914"
     inkscape:cy="10.066182"
     inkscape:window-x="-8"
     inkscape:window-y="-8"
     inkscape:window-maximized="1"
     inkscape:current-layer="svg4" />
  <path
     id="path851"
     style="fill:#000000;stroke-width:0;stroke-miterlimit:4;stroke-dasharray:none"
     d="M 6.4980471,-6.4999999e-8 5.4375001,0.86699507 4.3750001,1.7361795 V 2.8002196 3.6694034 H 1.0000005 C 0.45000043,3.6694034 4.35e-7,4.1738369 4.35e-7,4.7903667 v 5.6048163 c 0,0.61653 0.449999995,1.120963 1.000000065,1.120963 H 4.0000001 V 16 H 12 v -4.483854 h 3 c 0.55,0 1,-0.504433 1,-1.120963 V 4.7903667 C 16,4.1738369 15.55,3.6694034 15,3.6694034 H 11.75 V 1.9310345 -6.4999999e-8 H 9.1250001 Z M 2.0000005,4.7903667 c 0.552,0 1,0.5021916 1,1.1209634 0,0.6187718 -0.448,1.1209634 -1,1.1209634 -0.552,0 -1,-0.5021916 -1,-1.1209634 0,-0.6187718 0.448,-1.1209634 1,-1.1209634 z M 5.0000001,9.2742202 H 11 V 14.879037 H 5.0000001 Z" />
</svg>
