<?xml version="1.0" encoding="UTF-8" standalone="no"?>
<svg
   xmlns:dc="http://purl.org/dc/elements/1.1/"
   xmlns:cc="http://creativecommons.org/ns#"
   xmlns:rdf="http://www.w3.org/1999/02/22-rdf-syntax-ns#"
   xmlns:svg="http://www.w3.org/2000/svg"
   xmlns="http://www.w3.org/2000/svg"
   xmlns:sodipodi="http://sodipodi.sourceforge.net/DTD/sodipodi-0.dtd"
   xmlns:inkscape="http://www.inkscape.org/namespaces/inkscape"
   width="16"
   height="16"
   version="1.1"
   viewBox="0 0 16 16"
   id="svg6"
   sodipodi:docname="service-custom.svg"
   inkscape:version="1.0.2-2 (e86c870879, 2021-01-15)">
  <metadata
     id="metadata12">
    <rdf:RDF>
      <cc:Work
         rdf:about="">
        <dc:format>image/svg+xml</dc:format>
        <dc:type
           rdf:resource="http://purl.org/dc/dcmitype/StillImage" />
        <dc:title></dc:title>
      </cc:Work>
    </rdf:RDF>
  </metadata>
  <defs
     id="defs10" />
  <sodipodi:namedview
     pagecolor="#ffffff"
     bordercolor="#666666"
     borderopacity="1"
     objecttolerance="10"
     gridtolerance="10"
     guidetolerance="10"
     inkscape:pageopacity="0"
     inkscape:pageshadow="2"
     inkscape:window-width="1366"
     inkscape:window-height="745"
     id="namedview8"
     showgrid="false"
     inkscape:zoom="36.125"
     inkscape:cx="8.2768166"
     inkscape:cy="8"
     inkscape:window-x="-8"
     inkscape:window-y="-8"
     inkscape:window-maximized="1"
     inkscape:current-layer="svg6" />
  <path
     d="m7.908 15.8c-0.1979-0.0214-0.2933-0.04749-0.4654-0.1274-0.1123-0.05209-1.358-0.813-2.617-1.598-0.1099-0.06855-0.2769-0.1713-0.3713-0.2283l-0.1715-0.1036-1.585 0.4508c-0.8716 0.248-1.591 0.4438-1.6 0.4352-0.0176-0.01869-0.9974-3.371-0.9974-3.413 0-0.01582 0.01203-0.02875 0.02672-0.02875 0.02598 0 0.1537-0.03559 1.541-0.4297 3.405-0.9669 3.454-0.9805 3.686-1.02 0.3107-0.05345 0.6554-0.00128 0.8989 0.136 0.06043 0.03407 1.108 0.6187 2.327 1.299 1.22 0.6805 2.246 1.259 2.282 1.286 0.1526 0.1154 0.2655 0.3683 0.2649 0.5936-6.69e-4 0.27-0.09426 0.5071-0.275 0.6966-0.2598 0.2723-0.6822 0.3682-1.016 0.2306-0.06442-0.02658-0.5298-0.279-1.034-0.5611-0.5044-0.282-0.9229-0.5127-0.9299-0.5127-0.01633 0-0.1711 0.3164-0.1594 0.3257 0.00484 0.0039 0.4343 0.2436 0.9545 0.5328 1.112 0.618 1.178 0.6462 1.521 0.6469 0.2061 4.45e-4 0.2478-0.0058 0.4047-0.061 0.2327-0.08175 0.3751-0.1688 0.5352-0.327 0.2969-0.2935 0.4371-0.7242 0.3734-1.148l-0.01507-0.1003 1.613-0.4536c0.8873-0.2495 1.663-0.4593 1.725-0.4664 0.4836-0.05561 0.9644 0.3089 1.055 0.8001 0.07959 0.4305-0.1175 0.8984-0.475 1.128-0.1065 0.06836 0.1427-4e-3 -5.876 1.706-1.147 0.3259-1.27 0.3497-1.622 0.3116z"
     stroke-width=".01998"
     id="path2"
     style="stroke-width:0;stroke-miterlimit:4;stroke-dasharray:none" />
  <path
     d="m13.47 3.106c-0.2839-0.2772-0.6761-0.4158-1.177-0.4158-0.1386 0-0.28 0.02403-0.4241 0.07206-0.1442 0.04807-0.2783 0.1129-0.4023 0.1945-0.1241 0.08156-0.2308 0.1582-0.3202 0.2297-0.08937 0.07153-0.1743 0.1475-0.2548 0.228-0.08049-0.08044-0.1654-0.1565-0.2548-0.228-0.08944-0.07151-0.1961-0.1481-0.3202-0.2297-0.1241-0.08162-0.2582-0.1464-0.4023-0.1945-0.1442-0.04802-0.2856-0.07206-0.4241-0.07206-0.5007 0-0.893 0.1386-1.177 0.4158-0.2839 0.2772-0.4258 0.6616-0.4258 1.153 0 0.1498 0.0263 0.304 0.07881 0.4627 0.0525 0.1587 0.1123 0.294 0.1794 0.4057 0.06703 0.1117 0.143 0.2207 0.228 0.3269 0.08494 0.1062 0.147 0.1793 0.1861 0.2196 0.0391 0.04019 0.06985 0.06927 0.0922 0.08712l2.092 2.018c0.04024 0.04027 0.08941 0.06041 0.1475 0.06041 0.05811 0 0.1073-0.02014 0.1475-0.06033l2.089-2.012c0.5119-0.5118 0.7678-1.015 0.7678-1.509 1.2e-5 -0.4917-0.142-0.8762-0.4258-1.153z"
     stroke-width=".01174"
     id="path4"
     style="stroke-width:0;stroke-miterlimit:4;stroke-dasharray:none" />
</svg>
