<?xml version="1.0" encoding="UTF-8" standalone="no"?>
<svg
   xmlns:dc="http://purl.org/dc/elements/1.1/"
   xmlns:cc="http://creativecommons.org/ns#"
   xmlns:rdf="http://www.w3.org/1999/02/22-rdf-syntax-ns#"
   xmlns:svg="http://www.w3.org/2000/svg"
   xmlns="http://www.w3.org/2000/svg"
   xmlns:sodipodi="http://sodipodi.sourceforge.net/DTD/sodipodi-0.dtd"
   xmlns:inkscape="http://www.inkscape.org/namespaces/inkscape"
   version="1.1"
   width="16"
   height="16"
   viewBox="0 0 16 16"
   id="svg4"
   sodipodi:docname="service-custom-opt.svg"
   inkscape:version="1.0.2-2 (e86c870879, 2021-01-15)">
  <metadata
     id="metadata10">
    <rdf:RDF>
      <cc:Work
         rdf:about="">
        <dc:format>image/svg+xml</dc:format>
        <dc:type
           rdf:resource="http://purl.org/dc/dcmitype/StillImage" />
        <dc:title></dc:title>
      </cc:Work>
    </rdf:RDF>
  </metadata>
  <defs
     id="defs8" />
  <sodipodi:namedview
     pagecolor="#ffffff"
     bordercolor="#666666"
     borderopacity="1"
     objecttolerance="10"
     gridtolerance="10"
     guidetolerance="10"
     inkscape:pageopacity="0"
     inkscape:pageshadow="2"
     inkscape:window-width="1366"
     inkscape:window-height="745"
     id="namedview6"
     showgrid="false"
     inkscape:zoom="12.772116"
     inkscape:cx="-0.86988303"
     inkscape:cy="8.0858576"
     inkscape:window-x="-8"
     inkscape:window-y="-8"
     inkscape:window-maximized="1"
     inkscape:current-layer="svg4" />
  <path
     style="fill:#000000;stroke-width:0.0199766"
     d="M 7.9082264,15.799998 C 7.7103246,15.778603 7.614969,15.752508 7.4428037,15.672631 7.3305303,15.62054 6.0848338,14.859676 4.8258755,14.074221 4.7160053,14.005672 4.5489405,13.90296 4.4546207,13.845969 l -0.171491,-0.103618 -1.5847696,0.450821 c -0.8716239,0.247951 -1.5914065,0.443774 -1.5995164,0.435162 -0.017604,-0.01869 -0.99742049,-3.371348 -0.99742049,-3.412883 0,-0.01582 0.0120256,-0.02875 0.026717,-0.02875 0.0259764,0 0.15366683,-0.03559 1.54143604,-0.429673 3.4051164,-0.9669342 3.4540145,-0.980471 3.6856729,-1.0203269 0.3106925,-0.053453 0.655424,-0.00128 0.898944,0.1359803 0.060434,0.034067 1.1076995,0.6186736 2.3272676,1.2991256 1.219568,0.680452 2.2463663,1.25909 2.2817733,1.285864 0.152615,0.115403 0.265482,0.368293 0.264941,0.593622 -6.69e-4,0.269975 -0.09426,0.507098 -0.275004,0.696589 -0.259777,0.272349 -0.682218,0.368236 -1.0159085,0.230595 -0.064423,-0.02658 -0.5298406,-0.27905 -1.0342536,-0.561056 -0.5044141,-0.282005 -0.9228698,-0.512737 -0.9299045,-0.512737 -0.01633,0 -0.1711454,0.316353 -0.1594091,0.325744 0.00484,0.0039 0.4343378,0.243635 0.954472,0.532831 1.1115738,0.618038 1.1777007,0.646155 1.5214057,0.6469 0.206059,4.45e-4 0.247766,-0.0058 0.404749,-0.061 0.232672,-0.08175 0.375117,-0.168784 0.535199,-0.327007 0.296923,-0.293474 0.437054,-0.724211 0.37343,-1.147855 L 11.487884,12.774 13.101071,12.320427 c 0.887253,-0.249466 1.66339,-0.459346 1.724749,-0.4664 0.483633,-0.05561 0.964425,0.308947 1.055221,0.800105 0.07959,0.430527 -0.11746,0.898421 -0.474971,1.127835 -0.106532,0.06836 0.142665,-0.004 -5.8757255,1.706418 -1.1468705,0.32594 -1.2703056,0.349652 -1.622126,0.311613 z"
     id="path909" />
  <path
     d="m 13.466749,3.1060969 c -0.283899,-0.277216 -0.676131,-0.415765 -1.176872,-0.415765 -0.138574,0 -0.28,0.02403 -0.42414,0.07206 -0.144198,0.04807 -0.278343,0.112914 -0.402284,0.194496 -0.124105,0.08156 -0.230759,0.15815 -0.320232,0.229656 -0.08937,0.07153 -0.174332,0.147544 -0.254787,0.227987 -0.08049,-0.08044 -0.165431,-0.156459 -0.25481,-0.227987 -0.08944,-0.07151 -0.196139,-0.148051 -0.320221,-0.229656 -0.124058,-0.08162 -0.25818,-0.146418 -0.4023429,-0.194496 -0.1441508,-0.04802 -0.2855542,-0.07206 -0.4241268,-0.07206 -0.5007069,0 -0.8929625,0.138585 -1.1768256,0.415765 -0.2838622,0.277158 -0.4258061,0.661592 -0.4258061,1.153339 0,0.149764 0.026305,0.304026 0.078811,0.462669 0.052505,0.158701 0.1123375,0.29395 0.1793815,0.405689 0.067031,0.111727 0.1430473,0.220731 0.2279872,0.326904 0.084941,0.106184 0.1470171,0.179322 0.1860877,0.219591 0.039105,0.04019 0.06985,0.06927 0.092197,0.08712 l 2.092135,2.018421 c 0.04024,0.04027 0.08941,0.06041 0.147521,0.06041 0.05811,0 0.107312,-0.02014 0.147533,-0.06033 l 2.088811,-2.011733 c 0.511875,-0.511815 0.767789,-1.014752 0.767789,-1.508741 1.2e-5,-0.491747 -0.141955,-0.876181 -0.425806,-1.153339 z"
     id="path945"
     style="fill:#000000;stroke-width:0.0117434" />
</svg>
